testWalking_myEMG.mot
nRows=26
nColumns=9

name testWalking_myEMG.mot
datacolumns 9
datarows 26
range 0.0000000000 0.0231481481
endheader
time	VASMED.Raw	VASMED.Processed	GAS.Raw	GAS.Processed	SOL.Raw	SOL.Processed	HAMLAT.Raw	HAMLAT.Processed
        0.0000000000	     -683.6199951172	  6008609.4348735362	     2295.0097656250	  9189356.0961639881	      976.5999755859	  1573683.3893581554	    -5664.2797851563	 43424123.0173113940	
        0.0009259259	     8105.7797851563	 67506248.6808050270	    -1709.0499267578	  5259917.4100081772	     -634.7899780273	  5171695.9969900884	     2002.0299072266	 20884687.7287012190	
        0.0018518519	     2636.8198242188	 30648674.6046588420	     3564.5900878906	  9117827.5541136265	    -4883.0000000000	 19256163.4943788050	    -4394.7001953125	 17749243.9443027450	
        0.0027777778	     4638.8496093750	 16754957.0567851070	    -2099.6899414063	  2668108.5536386520	    -7226.8398437500	 31960079.4309234620	      781.2799682617	 12265194.4580045010	
        0.0037037037	     1806.7099609375	 10553215.1854066850	      488.2999877930	  5708178.7670230530	    -4150.5498046875	153441279.3509759900	    -2929.8000488281	  9499325.8854810596	
        0.0046296296	     2978.6298828125	  1714361.8847622871	    -2832.1398925781	 11168383.2690626080	    18848.3789062500	502400793.7194328300	    -1171.9199218750	  1230334.1727149049	
        0.0055555556	     5859.6000976563	 20953834.5169270040	    -6445.5600585938	 24535157.8240463730	    35450.5820312500	501123005.4689178500	      -48.8299980164	  1657136.2121183360	
        0.0064814815	     4492.3603515625	  7000502.0958156586	    -6006.0898437500	  5543657.0487451553	    40089.4296875000	115234343.7055358900	    -1416.0699462891	  1881266.9193115933	
        0.0074074074	     4638.8496093750	 24151268.9945173260	    -4736.5097656250	  3373883.7769393921	    48585.8515625000	127001300.8188781700	    -2539.1599121094	   639011.0263771415	
        0.0083333333	     -585.9599609375	  1242256.0978332758	    -4297.0400390625	 13683889.4329147340	    55715.0273437500	1528859418.1551514000	    -4101.7197265625	 15708220.1055976820	
        0.0092592593	      341.8099975586	  2691952.4292083420	    -6787.3696289063	 37465583.8086458440	    32423.1191406250	2321762374.6714821000	     -439.4700012207	 14628101.8919356910	
        0.0101851852	     4394.7001953125	 16843183.6973311900	    -2002.0299072266	 26483186.4628683180	   -22803.6093750000	2486364947.5479431000	    -3613.4199218750	 12262808.7030644710	
        0.0111111111	     7226.8398437500	 53514773.3046011920	    -4492.3603515625	 22820797.6023176610	   -60646.8593750000	2393062261.2933350000	    -1806.7099609375	 14380128.5955648420	
        0.0120370370	     -292.9799804688	 21440243.8479382990	     1318.4099121094	 14713940.9043938520	   -56349.8203125000	1454736871.5764160000	    -4883.0000000000	 24637683.8287386600	
        0.0129629630	     2978.6298828125	  9430178.2627583146	    -3662.2497558594	 10836955.0983355050	   -28370.2304687500	147170362.6880340600	      439.4700012207	 18643379.5696872320	
        0.0138888889	     1904.3699951172	 22262852.1174504610	     1953.1999511719	  5484047.7189526558	   -16895.1796875000	146915261.2940063500	    -3857.5698242188	 15181275.4288117250	
        0.0148148148	     8691.7402343750	 67363194.1836453680	    -2539.1599121094	   724847.7469488382	    -4883.0000000000	301040856.2321472200	     -683.6199951172	 15166969.4527665230	
        0.0157407407	     4297.0400390625	 15064441.7507667540	     2929.8000488281	  7343856.5720258802	    16406.8789062500	443483044.3232574500	    -4052.8898925781	 16092104.8460911740	
        0.0166666667	     3857.5698242188	  6521251.1636464596	     -488.2999877930	  4339551.3002446257	    35694.7304687500	1001723511.0772400000	     -488.2999877930	  7083959.6614251994	
        0.0175925926	     4980.6601562500	   131143.0457246304	     1562.5599365234	  2465437.2426634468	    16602.1992187500	411584966.2760286300	    -1806.7099609375	   617551.5273371339	
        0.0185185185	     6396.7299804688	 13435917.4449160100	       48.8299980164	  1375780.8031290313	    -3808.7399902344	146819890.5722035800	    -5420.1298828125	 24878503.7883863450	
        0.0194444444	     5517.7900390625	 12017219.9307504890	     -878.9400024414	   832144.7479701676	     9717.1699218750	118600891.5026537200	    -2490.3300781250	   414879.6564292908	
        0.0203703704	     2880.9699707031	 51514289.3835224510	    -1220.7500000000	  4089192.5931638181	     6347.8999023438	509565867.6033499200	    -1220.7500000000	  8908002.1512699127	
        0.0212962963	    10840.2597656250	 99645156.7567821740	    -6347.8999023438	 35288658.8139746190	   -48292.8710937500	2615512088.9636269000	     2978.6298828125	  4997636.5758905411	
        0.0222222222	     6201.4096679688	 59468534.0323560240	    -4101.7197265625	  9213201.5364155769	   -44630.6171875000	1963594301.6775169000	    -3173.9499511719	  6583242.5929837823	
        0.0231481481	     9033.5488281250	 53140412.9328594210	    -4101.7197265625	 18826974.4076825980	     -585.9599609375	  4015276.8216469884	     1171.9199218750	 13195095.9638013840	
